<mxfile host="app.diagrams.net" agent="Mozilla/5.0 (Windows NT 10.0; Win64; x64) AppleWebKit/537.36 (KHTML, like Gecko) Chrome/138.0.0.0 Safari/537.36" version="28.0.7">
  <diagram name="Page-1" id="zsiXDlCMpdOdWCkKP09o">
    <mxGraphModel dx="795" dy="549" grid="1" gridSize="10" guides="1" tooltips="1" connect="1" arrows="1" fold="1" page="1" pageScale="1" pageWidth="1169" pageHeight="827" math="0" shadow="0">
      <root>
        <mxCell id="0" />
        <mxCell id="1" parent="0" />
        <mxCell id="bvo75NUsxnOIJ5bkhlMq-1" value="AWS Cloud" style="points=[[0,0],[0.25,0],[0.5,0],[0.75,0],[1,0],[1,0.25],[1,0.5],[1,0.75],[1,1],[0.75,1],[0.5,1],[0.25,1],[0,1],[0,0.75],[0,0.5],[0,0.25]];outlineConnect=0;gradientColor=none;html=1;whiteSpace=wrap;fontSize=12;fontStyle=0;container=1;pointerEvents=0;collapsible=0;recursiveResize=0;shape=mxgraph.aws4.group;grIcon=mxgraph.aws4.group_aws_cloud_alt;strokeColor=#232F3E;fillColor=none;verticalAlign=top;align=left;spacingLeft=30;fontColor=#232F3E;dashed=0;" vertex="1" parent="1">
          <mxGeometry x="110" y="50" width="850" height="460" as="geometry" />
        </mxCell>
        <mxCell id="bvo75NUsxnOIJ5bkhlMq-5" value="" style="edgeStyle=orthogonalEdgeStyle;rounded=0;orthogonalLoop=1;jettySize=auto;html=1;" edge="1" parent="bvo75NUsxnOIJ5bkhlMq-1" source="bvo75NUsxnOIJ5bkhlMq-2" target="bvo75NUsxnOIJ5bkhlMq-4">
          <mxGeometry relative="1" as="geometry" />
        </mxCell>
        <mxCell id="bvo75NUsxnOIJ5bkhlMq-2" value="&lt;font style=&quot;font-size: 10px;&quot;&gt;&lt;i&gt;Event Bridge&lt;/i&gt;&lt;/font&gt;" style="sketch=0;points=[[0,0,0],[0.25,0,0],[0.5,0,0],[0.75,0,0],[1,0,0],[0,1,0],[0.25,1,0],[0.5,1,0],[0.75,1,0],[1,1,0],[0,0.25,0],[0,0.5,0],[0,0.75,0],[1,0.25,0],[1,0.5,0],[1,0.75,0]];outlineConnect=0;fontColor=#232F3E;fillColor=#E7157B;strokeColor=#ffffff;dashed=0;verticalLabelPosition=bottom;verticalAlign=top;align=center;html=1;fontSize=12;fontStyle=0;aspect=fixed;shape=mxgraph.aws4.resourceIcon;resIcon=mxgraph.aws4.eventbridge;" vertex="1" parent="bvo75NUsxnOIJ5bkhlMq-1">
          <mxGeometry x="40" y="190" width="64" height="64" as="geometry" />
        </mxCell>
        <mxCell id="bvo75NUsxnOIJ5bkhlMq-8" style="edgeStyle=orthogonalEdgeStyle;rounded=0;orthogonalLoop=1;jettySize=auto;html=1;" edge="1" parent="bvo75NUsxnOIJ5bkhlMq-1" source="bvo75NUsxnOIJ5bkhlMq-4" target="bvo75NUsxnOIJ5bkhlMq-7">
          <mxGeometry relative="1" as="geometry" />
        </mxCell>
        <mxCell id="bvo75NUsxnOIJ5bkhlMq-14" value="" style="edgeStyle=orthogonalEdgeStyle;rounded=0;orthogonalLoop=1;jettySize=auto;html=1;" edge="1" parent="bvo75NUsxnOIJ5bkhlMq-1" source="bvo75NUsxnOIJ5bkhlMq-4" target="bvo75NUsxnOIJ5bkhlMq-13">
          <mxGeometry relative="1" as="geometry" />
        </mxCell>
        <mxCell id="bvo75NUsxnOIJ5bkhlMq-4" value="&lt;font style=&quot;font-size: 9px;&quot;&gt;raw_bucket_processing&lt;/font&gt;" style="sketch=0;outlineConnect=0;fontColor=#232F3E;gradientColor=none;fillColor=#ED7100;strokeColor=none;dashed=0;verticalLabelPosition=bottom;verticalAlign=top;align=center;html=1;fontSize=12;fontStyle=0;aspect=fixed;pointerEvents=1;shape=mxgraph.aws4.lambda_function;" vertex="1" parent="bvo75NUsxnOIJ5bkhlMq-1">
          <mxGeometry x="251" y="190" width="64" height="64" as="geometry" />
        </mxCell>
        <mxCell id="bvo75NUsxnOIJ5bkhlMq-6" value="&lt;font style=&quot;font-size: 9px;&quot;&gt;1. Call (Target) lambda function&lt;/font&gt;&lt;div&gt;&lt;font style=&quot;font-size: 9px;&quot;&gt;raw_bucket_processing and&amp;nbsp;&lt;/font&gt;&lt;/div&gt;&lt;div&gt;&lt;font style=&quot;font-size: 9px;&quot;&gt;pass the message&lt;/font&gt;&lt;/div&gt;" style="text;html=1;align=center;verticalAlign=middle;resizable=0;points=[];autosize=1;strokeColor=none;fillColor=none;" vertex="1" parent="bvo75NUsxnOIJ5bkhlMq-1">
          <mxGeometry x="105" y="160" width="150" height="60" as="geometry" />
        </mxCell>
        <mxCell id="bvo75NUsxnOIJ5bkhlMq-7" value="&lt;font size=&quot;1&quot;&gt;&lt;i&gt;Document_Lake_Raw&lt;/i&gt;&lt;/font&gt;" style="sketch=0;points=[[0,0,0],[0.25,0,0],[0.5,0,0],[0.75,0,0],[1,0,0],[0,1,0],[0.25,1,0],[0.5,1,0],[0.75,1,0],[1,1,0],[0,0.25,0],[0,0.5,0],[0,0.75,0],[1,0.25,0],[1,0.5,0],[1,0.75,0]];outlineConnect=0;fontColor=#232F3E;fillColor=#7AA116;strokeColor=#ffffff;dashed=0;verticalLabelPosition=bottom;verticalAlign=top;align=center;html=1;fontSize=12;fontStyle=0;aspect=fixed;shape=mxgraph.aws4.resourceIcon;resIcon=mxgraph.aws4.s3;" vertex="1" parent="bvo75NUsxnOIJ5bkhlMq-1">
          <mxGeometry x="475" y="189" width="64" height="64" as="geometry" />
        </mxCell>
        <mxCell id="bvo75NUsxnOIJ5bkhlMq-9" value="&lt;font style=&quot;font-size: 9px;&quot;&gt;2. copy the document from Document_Lake_&lt;/font&gt;&lt;div&gt;&lt;font style=&quot;font-size: 9px;&quot;&gt;Raw with prefix like&amp;nbsp; topic_area_raw/&lt;/font&gt;&lt;div&gt;&lt;font style=&quot;font-size: 9px;&quot;&gt;source/YYYY/MM/DD/&amp;lt;file name&amp;gt;&amp;nbsp;&lt;br&gt;&lt;/font&gt;&lt;/div&gt;&lt;/div&gt;" style="text;html=1;align=center;verticalAlign=middle;resizable=0;points=[];autosize=1;strokeColor=none;fillColor=none;" vertex="1" parent="bvo75NUsxnOIJ5bkhlMq-1">
          <mxGeometry x="290" y="120" width="200" height="60" as="geometry" />
        </mxCell>
        <mxCell id="bvo75NUsxnOIJ5bkhlMq-10" value="&lt;font size=&quot;1&quot;&gt;&lt;i&gt;Document DB&lt;/i&gt;&lt;/font&gt;" style="sketch=0;points=[[0,0,0],[0.25,0,0],[0.5,0,0],[0.75,0,0],[1,0,0],[0,1,0],[0.25,1,0],[0.5,1,0],[0.75,1,0],[1,1,0],[0,0.25,0],[0,0.5,0],[0,0.75,0],[1,0.25,0],[1,0.5,0],[1,0.75,0]];outlineConnect=0;fontColor=#232F3E;fillColor=#C925D1;strokeColor=#ffffff;dashed=0;verticalLabelPosition=bottom;verticalAlign=top;align=center;html=1;fontSize=12;fontStyle=0;aspect=fixed;shape=mxgraph.aws4.resourceIcon;resIcon=mxgraph.aws4.dynamodb;" vertex="1" parent="bvo75NUsxnOIJ5bkhlMq-1">
          <mxGeometry x="251" y="340" width="64" height="64" as="geometry" />
        </mxCell>
        <mxCell id="bvo75NUsxnOIJ5bkhlMq-11" style="edgeStyle=orthogonalEdgeStyle;rounded=0;orthogonalLoop=1;jettySize=auto;html=1;entryX=0.5;entryY=0;entryDx=0;entryDy=0;entryPerimeter=0;" edge="1" parent="bvo75NUsxnOIJ5bkhlMq-1" source="bvo75NUsxnOIJ5bkhlMq-4" target="bvo75NUsxnOIJ5bkhlMq-10">
          <mxGeometry relative="1" as="geometry" />
        </mxCell>
        <mxCell id="bvo75NUsxnOIJ5bkhlMq-12" value="&lt;font style=&quot;font-size: 9px;&quot;&gt;3. Update the DynamoDB with&lt;/font&gt;&lt;div&gt;&lt;font style=&quot;font-size: 9px;&quot;&gt;STATUS = &#39;COPIED_TO_RAW_ZONE&#39; and add&lt;/font&gt;&lt;/div&gt;&lt;div&gt;&lt;font style=&quot;font-size: 9px;&quot;&gt;the&amp;nbsp; prefix&lt;/font&gt;&lt;/div&gt;&lt;div&gt;&lt;font style=&quot;font-size: 9px;&quot;&gt;&lt;br&gt;&lt;/font&gt;&lt;/div&gt;" style="text;html=1;align=center;verticalAlign=middle;resizable=0;points=[];autosize=1;strokeColor=none;fillColor=none;" vertex="1" parent="bvo75NUsxnOIJ5bkhlMq-1">
          <mxGeometry x="70" y="270" width="210" height="70" as="geometry" />
        </mxCell>
        <mxCell id="bvo75NUsxnOIJ5bkhlMq-13" value="&lt;font size=&quot;1&quot;&gt;&lt;i&gt;Raw_Bucket_zone&lt;/i&gt;&lt;/font&gt;" style="sketch=0;points=[[0,0,0],[0.25,0,0],[0.5,0,0],[0.75,0,0],[1,0,0],[0,1,0],[0.25,1,0],[0.5,1,0],[0.75,1,0],[1,1,0],[0,0.25,0],[0,0.5,0],[0,0.75,0],[1,0.25,0],[1,0.5,0],[1,0.75,0]];outlineConnect=0;fontColor=#232F3E;fillColor=#7AA116;strokeColor=#ffffff;dashed=0;verticalLabelPosition=bottom;verticalAlign=top;align=center;html=1;fontSize=12;fontStyle=0;aspect=fixed;shape=mxgraph.aws4.resourceIcon;resIcon=mxgraph.aws4.s3;" vertex="1" parent="bvo75NUsxnOIJ5bkhlMq-1">
          <mxGeometry x="250" y="20" width="64" height="64" as="geometry" />
        </mxCell>
        <mxCell id="bvo75NUsxnOIJ5bkhlMq-15" value="&lt;font style=&quot;font-size: 9px;&quot;&gt;4. Delete the original document&lt;/font&gt;&lt;div&gt;&lt;font style=&quot;font-size: 9px;&quot;&gt;&lt;br&gt;&lt;/font&gt;&lt;/div&gt;" style="text;html=1;align=center;verticalAlign=middle;resizable=0;points=[];autosize=1;strokeColor=none;fillColor=none;" vertex="1" parent="bvo75NUsxnOIJ5bkhlMq-1">
          <mxGeometry x="315" y="220" width="150" height="40" as="geometry" />
        </mxCell>
        <mxCell id="bvo75NUsxnOIJ5bkhlMq-16" value="&lt;font style=&quot;font-size: 9px;&quot;&gt;&lt;i&gt;S3 Glacier&lt;/i&gt;&lt;/font&gt;" style="sketch=0;points=[[0,0,0],[0.25,0,0],[0.5,0,0],[0.75,0,0],[1,0,0],[0,1,0],[0.25,1,0],[0.5,1,0],[0.75,1,0],[1,1,0],[0,0.25,0],[0,0.5,0],[0,0.75,0],[1,0.25,0],[1,0.5,0],[1,0.75,0]];outlineConnect=0;fontColor=#232F3E;fillColor=#7AA116;strokeColor=#ffffff;dashed=0;verticalLabelPosition=bottom;verticalAlign=top;align=center;html=1;fontSize=12;fontStyle=0;aspect=fixed;shape=mxgraph.aws4.resourceIcon;resIcon=mxgraph.aws4.glacier;" vertex="1" parent="bvo75NUsxnOIJ5bkhlMq-1">
          <mxGeometry x="475" y="20" width="64" height="64" as="geometry" />
        </mxCell>
        <mxCell id="bvo75NUsxnOIJ5bkhlMq-17" style="edgeStyle=orthogonalEdgeStyle;rounded=0;orthogonalLoop=1;jettySize=auto;html=1;entryX=0;entryY=0.5;entryDx=0;entryDy=0;entryPerimeter=0;dashed=1;dashPattern=8 8;" edge="1" parent="bvo75NUsxnOIJ5bkhlMq-1" source="bvo75NUsxnOIJ5bkhlMq-13" target="bvo75NUsxnOIJ5bkhlMq-16">
          <mxGeometry relative="1" as="geometry" />
        </mxCell>
        <mxCell id="bvo75NUsxnOIJ5bkhlMq-18" value="&lt;font style=&quot;font-size: 9px;&quot;&gt;5. Archive the document to AWS S3&amp;nbsp;&lt;/font&gt;&lt;div&gt;&lt;font style=&quot;font-size: 9px;&quot;&gt;Glacier&amp;nbsp;&lt;/font&gt;&lt;span style=&quot;font-size: 9px; background-color: transparent; color: light-dark(rgb(0, 0, 0), rgb(255, 255, 255));&quot;&gt;using Life Cycle policy&amp;nbsp;&lt;/span&gt;&lt;div&gt;&lt;div&gt;&lt;font style=&quot;font-size: 9px;&quot;&gt;&lt;br&gt;&lt;/font&gt;&lt;/div&gt;&lt;/div&gt;&lt;/div&gt;" style="text;html=1;align=center;verticalAlign=middle;resizable=0;points=[];autosize=1;strokeColor=none;fillColor=none;" vertex="1" parent="bvo75NUsxnOIJ5bkhlMq-1">
          <mxGeometry x="314" y="50" width="170" height="60" as="geometry" />
        </mxCell>
      </root>
    </mxGraphModel>
  </diagram>
</mxfile>
